<?xml version="1.0" standalone="no"?>
<svg xmlns:xlink="http://www.w3.org/1999/xlink" id="wave" style="transform:rotate(180deg); transition: 0.3s" viewBox="0 0 1440 100" version="1.1" xmlns="http://www.w3.org/2000/svg"><defs><linearGradient id="sw-gradient-0" x1="0" x2="0" y1="1" y2="0"><stop stop-color="rgba(255, 249, 234, 1)" offset="0%"/><stop stop-color="rgba(255, 249, 234, 1)" offset="100%"/></linearGradient></defs><path style="transform:translate(0, 0px); opacity:1" fill="url(#sw-gradient-0)" d="M0,70L21.8,70C43.6,70,87,70,131,63.3C174.5,57,218,43,262,35C305.5,27,349,23,393,31.7C436.4,40,480,60,524,68.3C567.3,77,611,73,655,75C698.2,77,742,83,785,78.3C829.1,73,873,57,916,46.7C960,37,1004,33,1047,28.3C1090.9,23,1135,17,1178,20C1221.8,23,1265,37,1309,38.3C1352.7,40,1396,30,1440,23.3C1483.6,17,1527,13,1571,13.3C1614.5,13,1658,17,1702,26.7C1745.5,37,1789,53,1833,51.7C1876.4,50,1920,30,1964,31.7C2007.3,33,2051,57,2095,58.3C2138.2,60,2182,40,2225,41.7C2269.1,43,2313,67,2356,63.3C2400,60,2444,30,2487,15C2530.9,0,2575,0,2618,5C2661.8,10,2705,20,2749,26.7C2792.7,33,2836,37,2880,41.7C2923.6,47,2967,53,3011,61.7C3054.5,70,3098,80,3120,85L3141.8,90L3141.8,100L3120,100C3098.2,100,3055,100,3011,100C2967.3,100,2924,100,2880,100C2836.4,100,2793,100,2749,100C2705.5,100,2662,100,2618,100C2574.5,100,2531,100,2487,100C2443.6,100,2400,100,2356,100C2312.7,100,2269,100,2225,100C2181.8,100,2138,100,2095,100C2050.9,100,2007,100,1964,100C1920,100,1876,100,1833,100C1789.1,100,1745,100,1702,100C1658.2,100,1615,100,1571,100C1527.3,100,1484,100,1440,100C1396.4,100,1353,100,1309,100C1265.5,100,1222,100,1178,100C1134.5,100,1091,100,1047,100C1003.6,100,960,100,916,100C872.7,100,829,100,785,100C741.8,100,698,100,655,100C610.9,100,567,100,524,100C480,100,436,100,393,100C349.1,100,305,100,262,100C218.2,100,175,100,131,100C87.3,100,44,100,22,100L0,100Z"/></svg>