<?xml version="1.0" standalone="no"?>
<svg xmlns:xlink="http://www.w3.org/1999/xlink" id="wave" style="transform:rotate(180deg); transition: 0.3s" viewBox="0 0 1440 100" version="1.1" xmlns="http://www.w3.org/2000/svg"><defs><linearGradient id="sw-gradient-0" x1="0" x2="0" y1="1" y2="0"><stop stop-color="rgba(255, 249, 234, 1)" offset="0%"/><stop stop-color="rgba(255, 249, 234, 1)" offset="100%"/></linearGradient></defs><path style="transform:translate(0, 0px); opacity:1" fill="url(#sw-gradient-0)" d="M0,70L48,70C96,70,192,70,288,63.3C384,57,480,43,576,35C672,27,768,23,864,31.7C960,40,1056,60,1152,68.3C1248,77,1344,73,1440,75C1536,77,1632,83,1728,78.3C1824,73,1920,57,2016,46.7C2112,37,2208,33,2304,28.3C2400,23,2496,17,2592,20C2688,23,2784,37,2880,38.3C2976,40,3072,30,3168,23.3C3264,17,3360,13,3456,13.3C3552,13,3648,17,3744,26.7C3840,37,3936,53,4032,51.7C4128,50,4224,30,4320,31.7C4416,33,4512,57,4608,58.3C4704,60,4800,40,4896,41.7C4992,43,5088,67,5184,63.3C5280,60,5376,30,5472,15C5568,0,5664,0,5760,5C5856,10,5952,20,6048,26.7C6144,33,6240,37,6336,41.7C6432,47,6528,53,6624,61.7C6720,70,6816,80,6864,85L6912,90L6912,100L6864,100C6816,100,6720,100,6624,100C6528,100,6432,100,6336,100C6240,100,6144,100,6048,100C5952,100,5856,100,5760,100C5664,100,5568,100,5472,100C5376,100,5280,100,5184,100C5088,100,4992,100,4896,100C4800,100,4704,100,4608,100C4512,100,4416,100,4320,100C4224,100,4128,100,4032,100C3936,100,3840,100,3744,100C3648,100,3552,100,3456,100C3360,100,3264,100,3168,100C3072,100,2976,100,2880,100C2784,100,2688,100,2592,100C2496,100,2400,100,2304,100C2208,100,2112,100,2016,100C1920,100,1824,100,1728,100C1632,100,1536,100,1440,100C1344,100,1248,100,1152,100C1056,100,960,100,864,100C768,100,672,100,576,100C480,100,384,100,288,100C192,100,96,100,48,100L0,100Z"/></svg>